<?xml version="1.0" encoding="utf-8"?>
<!-- Generator: Adobe Illustrator 16.0.0, SVG Export Plug-In . SVG Version: 6.00 Build 0)  -->
<!DOCTYPE svg PUBLIC "-//W3C//DTD SVG 1.1//EN" "http://www.w3.org/Graphics/SVG/1.1/DTD/svg11.dtd">
<svg version="1.1" id="Layer_1" xmlns="http://www.w3.org/2000/svg" xmlns:xlink="http://www.w3.org/1999/xlink" x="0px" y="0px"
	 width="16px" height="16px" viewBox="0 0 16 16" enable-background="new 0 0 16 16" xml:space="preserve">
<g>
	<path fill="#BEBEBE" d="M12.502,7h-5C7.226,7,7,6.775,7,6.5v-5C7,1.225,6.775,1,6.5,1h-3C3.225,1,3,1.225,3,1.5v12.029
		c0,0.275,0.225,0.5,0.5,0.5h9.002c0.275,0,0.5-0.225,0.5-0.5V7.5C13.002,7.225,12.777,7,12.502,7z M8.502,6h4
		c0.275,0,0.34-0.159,0.146-0.354L8.355,1.354C8.16,1.159,8.002,1.225,8.002,1.5v4C8.002,5.775,8.227,6,8.502,6z"/>
</g>
</svg>
